<svg xmlns="http://www.w3.org/2000/svg" viewBox="0 0 100 87" style="enable-background:new 0 0 100 87" xml:space="preserve"><g class="wdt-cook-utensils"><g class="wdt-cook-utensil-1"><path d="M21.6 79.1c-1.9 0-3.7-.7-5-2.1-1.4-1.4-2.1-3.2-2.1-5.2s.9-3.8 2.3-5.1l15.3-14c1.7-1.6 4.4-1.5 6.1.1l2.5 2.5c1.7 1.7 1.7 4.3.1 6.1l-14 15.3c-1.3 1.4-3.1 2.3-5.2 2.4.1 0 .1 0 0 0zm13.5-25.5c-.6 0-1.2.2-1.6.6l-15.3 14c-1 1-1.6 2.2-1.7 3.7 0 1.4.5 2.7 1.5 3.7s2.3 1.5 3.7 1.5c1.4 0 2.7-.6 3.7-1.7l14-15.3c.9-.9.8-2.4-.1-3.3l-2.5-2.5c-.5-.5-1.1-.7-1.7-.7zM64.5 44.6c-1 0-1.9-.4-2.6-1.1L50.1 31.7c-.7-.7-1.1-1.6-1.1-2.6s.4-1.9 1.1-2.6c4.1-4.1 7.5-8.7 10.2-13.8l2.2-4.1c.1-.3.4-.4.6-.5.3-.1.6 0 .8.1 8.5 5.7 15.7 12.9 21.4 21.4.2.2.2.5.1.8s-.2.6-.4.8l-4.1 2.2c-5.1 2.7-9.7 6.1-13.8 10.2-.7.6-1.6 1-2.6 1zm-.8-34-1.6 3.1C59.3 19 55.8 23.8 51.6 28c-.3.3-.5.7-.5 1.2s.2.9.5 1.2l11.8 11.8c.6.6 1.7.6 2.4 0 4.2-4.2 9-7.8 14.3-10.5l3.1-1.6c-5.4-7.8-11.9-14.3-19.5-19.5z"/><path d="M52.1 42.5c-.3 0-.5-.1-.7-.3-.4-.4-.4-1 0-1.4l4.6-4.6c.4-.4 1-.4 1.4 0s.4 1 0 1.4l-4.6 4.6c-.2.2-.4.3-.7.3zM38.8 55.8c-.3 0-.5-.1-.7-.3-.4-.4-.4-1 0-1.4l9.1-9.1c.4-.4 1-.4 1.4 0s.4 1 0 1.4l-9.1 9.1c-.2.3-.5.3-.7.3zM56.1 29.7c-.3 0-.5-.1-.7-.3-.4-.4-.4-1 0-1.4 3.2-3.2 6.1-6.6 8.8-10.2l.8.5.8.6c-2.8 3.7-5.8 7.2-9 10.4-.2.3-.5.4-.7.4zM60.4 34.1c-.3 0-.5-.1-.7-.3-.4-.4-.4-1 0-1.4l9.6-9.6c.4-.4 1-.4 1.4 0s.4 1 0 1.4l-9.6 9.6c-.2.2-.4.3-.7.3zM64.8 38.4c-.3 0-.5-.1-.7-.3-.4-.4-.4-1 0-1.4 3.2-3.2 6.7-6.2 10.4-9 .4-.3 1.1-.3 1.4.2.3.4.3 1-.2 1.4C72 32 68.6 35 65.5 38.1c-.2.3-.5.3-.7.3z"/></g><g class="wdt-cook-utensil-2"><path d="M77.2 78H77c-2 0-3.8-.9-5.1-2.3l-14-15.3c-1.6-1.7-1.5-4.4.1-6.1l2.5-2.5c1.7-1.7 4.3-1.7 6.1-.1l15.3 14c1.4 1.3 2.3 3.1 2.3 5.1s-.7 3.8-2.1 5.2c-1.2 1.3-3 2-4.9 2zM63.7 52.5c-.6 0-1.2.2-1.7.7l-2.5 2.5c-.9.9-.9 2.4-.1 3.3l14 15.3c1 1 2.2 1.6 3.7 1.7 1.4 0 2.7-.5 3.7-1.5s1.5-2.3 1.5-3.7c0-1.4-.6-2.7-1.7-3.7l-15.3-14c-.5-.4-1.1-.6-1.6-.6z"/><path d="M60 54.7c-.3 0-.5-.1-.7-.3L41.4 36.5c-.4-.4-.4-1 0-1.4s1-.4 1.4 0L60.7 53c.4.4.4 1 0 1.4-.2.2-.4.3-.7.3z"/><path d="M35.2 39h-.7c-2.1-.2-4.1-1.1-5.6-2.6L16 23.4c-.3-.3-.4-.7-.2-1 .1-.4.4-.6.8-.7 4-.7 8 .6 10.8 3.4l4.9 4.9 4.3-4.3-4.9-4.9c-2.8-2.8-4.1-6.9-3.4-10.8.1-.4.3-.7.7-.8.4-.1.7 0 1 .2l12.9 12.9c1.5 1.5 2.4 3.5 2.6 5.6.2 2.6-.7 5.2-2.6 7l-1.3 1.3c-1.8 1.8-4 2.8-6.4 2.8zM19 23.6 30.3 35c1.2 1.2 2.7 1.9 4.3 2 2 .2 4-.6 5.5-2l1.3-1.3c1.4-1.4 2.2-3.4 2-5.5-.1-1.6-.8-3.2-2-4.3L30 12.5c.1 2.6 1.2 5.1 3 7l5.6 5.6c.4.4.4 1 0 1.4L33 32.2c-.4.4-1 .4-1.4 0L26 26.6c-1.9-1.9-4.4-2.9-7-3z"/></g></g></svg>