<svg
      xmlns="http://www.w3.org/2000/svg"
      x="0"
      y="0"
      enableBackground="new 0 0 100 86.7"
      viewBox="0 0 100 86.7"
    >
      <g className="wdt-cooking-food">
        <g className="wdt-cooking-food1">
          <path d="M80.5 65c-4.1 0-9.4-1.1-14.3-2.5-.5-.2-.8-.7-.7-1.2.2-.5.7-.8 1.2-.7 11.8 3.4 17.9 2.7 18.5 1.1 0-.1.1-.3 0-.5-.1-.5.3-1 .9-1.1.6 0 1 .3 1.1.9 0 .5 0 .9-.2 1.4-.6 1.9-3.1 2.6-6.5 2.6z"></path>
          <path d="M66.5 62.6h-.3c-2.5-.7-5.2-1.6-7.8-2.6-12.9-4.9-25-12.4-23.2-17.2.9-2.2 4.2-3 10.1-2.4 5.3.6 11.9 2.3 18.6 4.9 1 .4 2 .8 2.9 1.2.5.2.8.8.5 1.3-.2.5-.8.8-1.3.5-.9-.4-1.9-.8-2.9-1.1-6.6-2.5-13.1-4.2-18.2-4.8-5.4-.6-7.7.2-8 1.1-.9 2.3 7.1 8.9 22 14.6 2.6 1 5.2 1.8 7.7 2.6.5.2.8.7.7 1.2 0 .4-.4.7-.8.7z"></path>
          <path d="M62.2 79c-3.5 0-7-.6-10.4-1.9C45 74.5 39.4 69.5 36.3 63c-3.2-6.5-3.5-13.7-1.1-20.2.2-.5.8-.8 1.3-.6s.8.8.6 1.3c-2.3 6-1.9 12.6 1 18.6s8.1 10.7 14.5 13.1C59 77.7 66 77.6 72.1 75c6.2-2.5 10.8-7.3 13.1-13.3.2-.5.8-.8 1.3-.6s.8.8.6 1.3c-2.5 6.5-7.5 11.7-14.2 14.4-3.4 1.5-7 2.2-10.7 2.2zM31.3 48.4H31l-17.9-5c-1.7-.5-3.2-1.7-4-3.3s-.8-3.4-.2-5.1c.6-1.7 2-3 3.6-3.7 1.7-.7 3.6-.6 5.2.2l16.6 8.1c.5.2.7.8.5 1.3s-.8.7-1.3.5l-16.6-8.1c-1.1-.5-2.4-.6-3.6-.1s-2.1 1.4-2.5 2.5-.4 2.4.2 3.6 1.5 1.9 2.8 2.3l17.9 5c.5.1.8.7.7 1.2-.2.4-.6.6-1.1.6z"></path>
        </g>
        <g className="wdt-cooking-food2">
          <path d="M63.7 41.9c-.2 0-.5 0-.7-.1l-3.1-1.5c-.8-.4-1.2-1.4-.8-2.3l.8-1.8c.2-.5.8-.7 1.3-.5s.7.8.5 1.3l-.7 1.6 2.6 1.2.4-.8c.2-.5.8-.7 1.3-.5s.7.8.5 1.3l-.5 1c-.3.7-1 1.1-1.6 1.1zM68.2 37.7c-.3 0-.6-.1-.9-.2l-7.2-3.3c-1-.5-1.5-1.7-1-2.8l.9-1.9c.9-1.9 3.2-2.8 5.1-1.9l4 1.9c1.9.9 2.8 3.2 1.9 5.1l-.9 1.9c-.2.5-.7.9-1.2 1.1-.2 0-.5.1-.7.1zm-4.7-8.5c-.7 0-1.4.4-1.7 1.1l-.9 1.9v.1l7.2 3.3h.1l.9-1.9c.4-.9 0-2-.9-2.5l-4-1.9c-.2 0-.5-.1-.7-.1zM82.8 22h-.6c-.9-.1-1.7-.6-2.3-1.4-.5-.8-.8-1.7-.6-2.6.3-1.9 2.1-3.2 4-2.9.9.1 1.7.6 2.3 1.4.5.8.8 1.7.6 2.6s-.6 1.7-1.4 2.3c-.6.4-1.3.6-2 .6zm0-4.9c-.7 0-1.3.5-1.5 1.2-.1.4 0 .8.3 1.1.2.3.6.5 1 .6s.8 0 1.1-.3c.3-.2.5-.6.6-1s0-.8-.3-1.1c-.2-.3-.6-.5-1-.6 0 .1-.1.1-.2.1zM70.1 19.6h-.4c-.4 0-.7-.2-.8-.5-.5-.7-1.6-2.9-1-5.5.6-2.7 2.7-4 3.4-4.4C73.2 8 75.2 8 76.2 8.1c.4 0 .8.3.9.7.5 1.6.5 3.3.1 4.9-.2.9-.7 2.9-2.6 4.4-1.7 1.2-3.4 1.5-4.5 1.5zm5.2-9.6c-.8 0-1.9.2-2.9.8-.6.3-2.1 1.3-2.5 3.2-.4 1.5.1 2.9.5 3.6.8 0 1.9-.2 2.9-1 1.4-1.1 1.7-2.5 1.9-3.3.2-1.1.2-2.2.1-3.3zM61.8 23.4c-.3 0-.5 0-.8-.1l-1.7-.7c-3.2-1.3-6-3.1-8.4-5.5-1.8-1.8-1.8-4.7 0-6.5.9-.9 2-1.3 3.2-1.3s2.4.5 3.2 1.3c2.4 2.4 4.3 5.2 5.5 8.4l.7 1.6v.1c.3.8.1 1.6-.4 2.2-.3.2-.8.5-1.3.5zm-7.6-12.3c-.7 0-1.3.3-1.8.8-1 1-1 2.6 0 3.6 2.2 2.2 4.8 3.9 7.7 5.1l1.7.7-.7-1.7c-1.2-2.9-2.9-5.5-5.1-7.7-.5-.5-1.1-.8-1.8-.8z"></path>
        </g>
        <g className="wdt-cooking-food3">
          <path d="M89.2 38.7c-.1 0-.3 0-.4-.1-.5-.2-.7-.8-.5-1.3 1.1-2.4.9-5.3-.3-7.6l-.7-1.2c-.3-.5-.1-1.1.4-1.4s1.1-.1 1.4.4l.7 1.2c1.6 2.9 1.7 6.4.4 9.3-.3.5-.7.7-1 .7zM74.3 28.3c-.2 0-.4-.1-.6-.2-.4-.3-.6-.9-.2-1.4l.3-.5c.9-1.3 1.2-3 .8-4.5-.2-.5.1-1.1.7-1.2.5-.2 1.1.1 1.2.7.6 2.2.2 4.4-1.1 6.3l-.3.5c-.1.2-.4.3-.8.3zM50.8 39c-.3 0-.6-.2-.8-.4-.3-.5-.2-1.1.3-1.4l.5-.3c1.3-.9 2.2-2.3 2.3-4 0-.6.5-1 1.1-.9.6 0 1 .5.9 1.1-.2 2.2-1.3 4.2-3.2 5.5l-.5.3c-.3.1-.4.1-.6.1z"></path>
        </g>
        <g className="wdt-cooking-food4">
          <path d="M78.8 65c-.2 0-.5-.1-.7-.3-.4-.4-.4-1 0-1.4.5-.5 1-1 1.4-1.6.8-.9 1.7-1.9 2.6-2.7 1.9-1.8 3.3-3.1 4.1-5.3.9-2.4.7-4.9-.4-6.6-.3-.4-.6-.8-1-1.3s-.8-.9-1.1-1.5c-.9-1.4-.8-2.6-.8-3.8v-6.1c0-2-1.6-3.6-3.6-3.6-.8 0-1.6.3-2.2.9-.6.6-.8 1.4-.8 2.2v1.4c0 9.8-5.9 18.6-14.9 22.3-.5.2-1.1 0-1.3-.5s0-1.1.5-1.3c8.3-3.4 13.7-11.5 13.7-20.5V34c-.1-1.4.4-2.7 1.3-3.7s2.2-1.6 3.6-1.6c3.1 0 5.6 2.5 5.6 5.6V40.5c-.1 1-.1 1.8.4 2.6.3.4.6.8 1 1.2.4.5.8.9 1.2 1.5 1.5 2.3 1.7 5.4.6 8.4-1 2.7-2.7 4.3-4.6 6-.9.8-1.7 1.8-2.5 2.6-.5.5-1 1.1-1.5 1.6 0 .5-.3.6-.6.6zM48.5 51.9c-.5 0-.9-.4-1-.9l-.4-3c-.1-1.2-1.3-2.2-2.5-2.2-.6 0-1.2.3-1.7.7-.4.5-.7 1.1-.7 1.7V50c0 .6-.4 1-1 1s-1-.4-1-1v-1.8c0-1.2.4-2.3 1.2-3.1s1.9-1.3 3.1-1.4c2.3 0 4.3 1.6 4.5 3.9l.4 3c.1.5-.3 1-.9 1.1.1.2.1.2 0 .2z"></path>
          <path d="M73.1 60.7c-.3 0-.6-.1-.8-.4-.3-.4-.2-1.1.2-1.4 1.1-.8 2.2-1.8 3.1-2.8.4-.4 1-.5 1.4-.1s.4 1 .1 1.4c-1 1.2-2.2 2.2-3.4 3.1-.2.2-.4.2-.6.2zM79.5 53.2c-.1 0-.3 0-.4-.1-.5-.2-.7-.8-.5-1.3.5-1.1 1-2.2 1.3-3.4l.4-1.5c.1-.5.7-.8 1.2-.7s.8.7.7 1.2l-.4 1.5c-.3 1.3-.8 2.5-1.4 3.7-.2.3-.5.6-.9.6z"></path>
        </g>
      </g>
    </svg>